<svg id="Layer_1" data-name="Layer 1" xmlns="http://www.w3.org/2000/svg" viewBox="0 0 1920 1080"><defs><style>.cls-1{opacity:0.1;}.cls-2{fill:#f9f9fa;}.cls-3{opacity:0.05;}</style></defs><title>asset-background</title><g class="cls-1"><path class="cls-2" d="M1864.06,525a12.09,12.09,0,0,1-15.74-3.74l-12.08-17.49a.28.28,0,0,0-.29-.11l-1.64.35c-12.38,2.66-45.24,9.72-60.42-16.16-19.34-33-1.85-67.7,24-87.46a12.09,12.09,0,1,1,14.67,19.21c-3.59,2.74-34.56,27.56-17.87,56,5.58,9.52,20.57,7.75,34.49,4.76L1831,480a24.4,24.4,0,0,1,25.11,10l12.07,17.49a12.08,12.08,0,0,1-3.07,16.81C1864.78,524.6,1864.42,524.82,1864.06,525Z"/><path class="cls-2" d="M1884.66,555.05a15.31,15.31,0,0,1-16.05-26,6,6,0,0,1,6.86,10,3.22,3.22,0,0,0-.82,4.49,3.23,3.23,0,0,0,5.78-2.66,6,6,0,1,1,11.68-3.11,15.34,15.34,0,0,1-6.1,16.54A15.78,15.78,0,0,1,1884.66,555.05Z"/></g><g class="cls-3"><path class="cls-2" d="M1782,287.82a15.73,15.73,0,0,1,20.49,4.87l15.73,22.77a.35.35,0,0,0,.37.14l2.14-.46c16.11-3.46,58.91-12.65,78.66,21.05,25.18,42.94,2.42,88.13-31.31,113.87a15.73,15.73,0,1,1-19.09-25c4.67-3.57,45-35.88,23.26-72.95-7.27-12.39-26.78-10.08-44.91-6.19l-2.33.5a31.78,31.78,0,0,1-32.69-13.07l-15.72-22.77a15.74,15.74,0,0,1,4-21.89A15.29,15.29,0,0,1,1782,287.82Z"/><path class="cls-2" d="M1755.17,248.71a19.94,19.94,0,0,1,20.9,33.91,7.87,7.87,0,1,1-8.93-12.95,4.19,4.19,0,0,0,1.74-2.7,4.13,4.13,0,0,0-.67-3.15,4.21,4.21,0,0,0-7.53,3.47,7.87,7.87,0,0,1-15.21,4,20,20,0,0,1,7.94-21.53A20.41,20.41,0,0,1,1755.17,248.71Z"/></g><g class="cls-1"><path class="cls-2" d="M88.76,803.77a11,11,0,0,1-13-6.79L69,778.9a.26.26,0,0,0-.23-.16l-1.52,0c-11.49-.41-42-1.49-49.62-27.65C7.9,717.7,31,691,58.2,679.36a11,11,0,1,1,8.65,20.18c-3.77,1.61-36.55,16.59-28.17,45.36,2.8,9.63,16.39,11.39,29.31,11.85l1.67.06a22.16,22.16,0,0,1,19.88,14.42l6.75,18.08a11,11,0,0,1-6.45,14.12A11.21,11.21,0,0,1,88.76,803.77Z"/><path class="cls-2" d="M100.23,834.8a13.91,13.91,0,0,1-8.35-26.5,5.49,5.49,0,1,1,3.83,10.28,2.93,2.93,0,1,0,4,2.72,5.49,5.49,0,1,1,11-.15,13.94,13.94,0,0,1-9.05,13.21A13.63,13.63,0,0,1,100.23,834.8Z"/></g><g class="cls-1"><path class="cls-2" d="M96.05,632.12a8.18,8.18,0,0,1,9.71,5l5,13.47a.17.17,0,0,0,.17.12l1.13,0c8.56.31,31.29,1.11,37,20.6,7.23,24.83-10,44.71-30.24,53.39a8.18,8.18,0,1,1-6.44-15c2.8-1.2,27.22-12.36,21-33.79-2.08-7.17-12.21-8.48-21.83-8.83l-1.24,0a16.5,16.5,0,0,1-14.81-10.74l-5-13.47a8.18,8.18,0,0,1,4.8-10.52A8.36,8.36,0,0,1,96.05,632.12Z"/><path class="cls-2" d="M87.5,609a10.37,10.37,0,0,1,12.31,6.41,10.37,10.37,0,0,1-6.08,13.33,4.09,4.09,0,0,1-2.86-7.66A2.17,2.17,0,0,0,92.09,620a2.13,2.13,0,0,0,.06-1.68,2.18,2.18,0,0,0-4.23.79,4.09,4.09,0,0,1-8.18.11,10.4,10.4,0,0,1,6.74-9.84C86.82,609.21,87.16,609.1,87.5,609Z"/></g><g class="cls-1"><path class="cls-2" d="M1805.61,641.08a7.78,7.78,0,0,1-5.7-8.7l2.09-13.49a.17.17,0,0,0-.09-.18l-.92-.56c-7-4.23-25.41-15.44-21.07-34.23,5.54-23.93,29-32.41,49.85-30.2a7.76,7.76,0,1,1-1.64,15.44c-2.88-.3-28.3-2.39-33.08,18.26-1.59,6.91,6.18,12.7,14,17.45l1,.62a15.67,15.67,0,0,1,7.28,15.77l-2.08,13.49a7.77,7.77,0,0,1-8.86,6.49C1806.13,641.2,1805.87,641.14,1805.61,641.08Z"/><path class="cls-2" d="M1802,664.19a9.84,9.84,0,0,1,4-19.24,3.88,3.88,0,1,1-1.19,7.67,2.09,2.09,0,0,0-2.37,1.74,2.08,2.08,0,0,0,3.88,1.31,3.88,3.88,0,1,1,6.82,3.71,9.87,9.87,0,0,1-10.15,5A7.9,7.9,0,0,1,1802,664.19Z"/></g><g class="cls-3"><path class="cls-2" d="M1839.52,674.75a5.59,5.59,0,0,1,4.09,6.25l-1.5,9.7a.15.15,0,0,0,.07.13l.66.4c5,3,18.26,11.1,15.14,24.6-4,17.2-20.86,23.3-35.83,21.71a5.58,5.58,0,1,1,1.18-11.1c2.07.22,20.34,1.72,23.77-13.13,1.15-5-4.44-9.12-10.06-12.54l-.72-.44a11.28,11.28,0,0,1-5.24-11.34l1.5-9.69a5.58,5.58,0,0,1,6.37-4.67Z"/><path class="cls-2" d="M1842.14,658.13a7.08,7.08,0,0,1,2.38,12.55,7,7,0,0,1-5.26,1.29,2.79,2.79,0,0,1,.85-5.52,1.48,1.48,0,0,0,1.7-1.25,1.49,1.49,0,0,0-2.78-.94,2.79,2.79,0,0,1-4.91-2.66,7.08,7.08,0,0,1,7.3-3.61A6.1,6.1,0,0,1,1842.14,658.13Z"/></g></svg>