<svg id="Layer_1" data-name="Layer 1" xmlns="http://www.w3.org/2000/svg" viewBox="0 0 491.23 300.05"><defs><style>.cls-1{fill:#f9f9fa;}.cls-2{fill:#34c0cb;}</style></defs><title>logo</title><path class="cls-1" d="M570.17,195.11a16.69,16.69,0,0,1-16.59-15l-3-29.22a.37.37,0,0,0-.28-.32l-2.22-.67c-16.76-5-61.29-18.29-62.48-59.74-1.52-52.82,42.74-83.27,87.28-90a16.7,16.7,0,0,1,5,33c-6.17.93-60.2,10.43-58.88,56,.43,15.25,19.77,23.06,38.63,28.69l2.43.73a33.73,33.73,0,0,1,23.76,28.85l3,29.22a16.73,16.73,0,0,1-16.64,18.41Z" transform="translate(-104.77 0.03)"/><path class="cls-1" d="M575.18,245.21a21.18,21.18,0,0,1-16.41-34.53A21,21,0,0,1,573,203a8.35,8.35,0,0,1,1.71,16.61,4.43,4.43,0,0,0-3,1.63,4.39,4.39,0,0,0-1,3.27,4.47,4.47,0,0,0,8.78.62,8.35,8.35,0,0,1,16.22,4,21.24,21.24,0,0,1-18.39,16A20.23,20.23,0,0,1,575.18,245.21Z" transform="translate(-104.77 0.03)"/><path class="cls-2" d="M354.73,221.83a16.71,16.71,0,0,1-16.59-14.93L318.85,25.78a16.7,16.7,0,0,1,33.22-3.54l19.29,181.12a16.7,16.7,0,0,1-14.84,18.38C355.92,221.8,355.32,221.83,354.73,221.83Z" transform="translate(-104.77 0.03)"/><path class="cls-2" d="M294.62,135.44a17.31,17.31,0,0,0-17.31,17.31v19.63c0,.94-1.46,2.32-3.76,2.32a4.64,4.64,0,0,1-2.95-1c0-.45,0-.89,0-1.34V152.75a18.16,18.16,0,0,0-36.32,0V172a7.91,7.91,0,0,1-10.07,0V152.75a18.16,18.16,0,0,0-36.32,0v19.63c0,1,.06,2,.14,2.92H156.79l-2.17-22.66a16.7,16.7,0,1,0-33.25,3.17l8.94,93.82a16.56,16.56,0,0,0-.12,4.23,11.71,11.71,0,0,1-10.43,12.83A16.7,16.7,0,0,0,121.45,300a17,17,0,0,0,1.74-.09,45.17,45.17,0,0,0,40.06-38.79,16.7,16.7,0,0,0,1-7.48L160,208.71h58a45,45,0,0,0,11.34,1.45,43.84,43.84,0,0,0,23.52-6.73,39.28,39.28,0,0,0,20.74,5.88c21.16,0,38.38-16.57,38.38-36.93V152.75A17.31,17.31,0,0,0,294.62,135.44Z" transform="translate(-104.77 0.03)"/><path class="cls-2" d="M524.57,167.32H460.18l-.79-7.65A40.55,40.55,0,0,0,419,123.17h0a41.78,41.78,0,0,0-4.18.21,40.67,40.67,0,0,0,4.15,81.12,41.64,41.64,0,0,0,4.18-.21l10.14-1,4.42,46.38a16.64,16.64,0,0,0-.12,4.24,11.71,11.71,0,0,1-10.43,12.83,16.7,16.7,0,1,0,3.42,33.23,45.16,45.16,0,0,0,40.06-38.8,16.62,16.62,0,0,0,1-7.46l-5-52.94h58a16.7,16.7,0,0,0,0-33.4Zm-104,12a14.93,14.93,0,0,1-1.62.09,15.61,15.61,0,0,1-1.58-31.14,14.66,14.66,0,0,1,1.62-.09,15.62,15.62,0,0,1,15.51,14l1.22,11.9a17.22,17.22,0,0,0-2.54,3.92Z" transform="translate(-104.77 0.03)"/></svg>